<?xml version="1.0" encoding="UTF-8"?>
<svg width="40px" height="40px" viewBox="0 0 40 40" version="1.1" xmlns="http://www.w3.org/2000/svg" xmlns:xlink="http://www.w3.org/1999/xlink">
    <title>image_light off</title>
    <g id="image_light-off" stroke="none" stroke-width="1" fill="none" fill-rule="evenodd">
        <rect id="Rectangle" fill="#FFFFFF" opacity="0.199999988" x="0" y="0" width="40" height="40" rx="20"></rect>
        <g id="编组" transform="translate(14.000000, 11.000000)" fill="#FFFFFF">
            <path d="M5.89213959,0.761311525 C7.48651821,0.660772039 8.94666527,1.23916573 10.0103321,2.23602623 C11.0811245,3.23956476 11.7501893,4.66664064 11.7501893,6.25004824 C11.7501893,8.1536641 10.779836,9.82700779 9.30989485,10.8138614 C8.55976828,11.3920146 8.08156892,12.2237475 8.01194184,13.171295 L8.01194184,13.171295 L4.75018929,13.5000482 L3.00018929,13.2500482 L4.50018559,13.3996898 C4.49693639,12.3664465 4.00780879,11.4511532 3.25252182,10.8577831 C2.39715252,10.2848776 1.73896326,9.53965218 1.30814173,8.66263094 C0.896507516,7.82466925 0.693119398,6.86641417 0.763855735,5.85395984 C0.859086464,4.49455768 1.4625479,3.26518392 2.38050978,2.35359979 C3.29851557,1.44197204 4.53213199,0.847088668 5.89213959,0.761311525 Z" id="Fill-1" stroke="#FFFFFF" stroke-width="1.5"></path>
            <path d="M3.75016429,15.5000232 L3.75016429,16.2500232 C3.75016429,16.8022732 4.19791429,17.2500232 4.75016429,17.2500232 L7.75016429,17.2500232 C8.30241429,17.2500232 8.75016429,16.8022732 8.75016429,16.2500232 L8.75016429,15.5000232 L3.75016429,15.5000232 Z" id="Fill-4"></path>
        </g>
    </g>
</svg>