<?xml version="1.0" encoding="UTF-8"?>
<svg width="40px" height="40px" viewBox="0 0 40 40" version="1.1" xmlns="http://www.w3.org/2000/svg" xmlns:xlink="http://www.w3.org/1999/xlink">
    <title>image_light on</title>
    <defs>
        <polygon id="path-1" points="0 14.250025 0 0 12.5 0 12.5 14.250025"></polygon>
    </defs>
    <g id="image_light-on" stroke="none" stroke-width="1" fill="none" fill-rule="evenodd">
        <g id="Group-7">
            <path d="M20,0 C31.045695,-2.02906125e-15 40,8.954305 40,20 C40,31.045695 31.045695,40 20,40 C8.954305,40 1.3527075e-15,31.045695 0,20 C-1.3527075e-15,8.954305 8.954305,2.02906125e-15 20,0 Z M22,28.75 L18,28.75 L18,29.5 C18,30.05225 18.3582,30.5 18.8,30.5 L21.2,30.5 C21.6418,30.5 22,30.05225 22,29.5 L22,28.75 Z M25.75,20.0615287 C25.75,16.7271891 22.9718721,14.0488385 19.6272627,14.2620001 C16.7828958,14.4433153 14.4636109,16.7708907 14.2644339,19.6445038 C14.1130962,21.8337683 15.1646403,23.7817442 16.8160153,24.8942755 C17.3502972,25.3185065 17.6978219,25.9724034 17.7001219,26.7116114 L17.7001219,26.7116114 L17.7001219,26.5702786 C17.7001219,27.0837725 18.1120457,27.5001 18.620108,27.5001 L18.620108,27.5001 L21.3800662,27.5001 C21.8881285,27.5001 22.3000522,27.0837725 22.3000522,26.5702786 L22.3000522,26.5702786 L22.302,26.711 L22.3100777,26.5340492 C22.3630122,25.8621211 22.701377,25.2735651 23.1995686,24.8840475 C24.7364053,23.8412527 25.75,22.0727324 25.75,20.0615287 Z M29.5,19.25 L28,19.25 C27.5857864,19.25 27.25,19.5857864 27.25,20 C27.25,20.4142136 27.5857864,20.75 28,20.75 L28,20.75 L29.5,20.75 C29.9142136,20.75 30.25,20.4142136 30.25,20 C30.25,19.5857864 29.9142136,19.25 29.5,19.25 L29.5,19.25 Z M12,19.25 L10.5,19.25 C10.0857864,19.25 9.75,19.5857864 9.75,20 C9.75,20.4142136 10.0857864,20.75 10.5,20.75 L10.5,20.75 L12,20.75 C12.4142136,20.75 12.75,20.4142136 12.75,20 C12.75,19.5857864 12.4142136,19.25 12,19.25 L12,19.25 Z M13.7286972,12.6795373 C13.4350857,12.4616829 13.0184221,12.4858889 12.7521555,12.7521555 C12.4592623,13.0450487 12.4592623,13.5199224 12.7521555,13.8128157 L12.7521555,13.8128157 L13.8128157,14.8734758 L13.8969341,14.946094 C14.1905456,15.1639485 14.6072093,15.1397424 14.8734758,14.8734758 C15.1663691,14.5805826 15.1663691,14.1057089 14.8734758,13.8128157 L14.8734758,13.8128157 L13.8128157,12.7521555 Z M27.2478445,12.7521555 C26.9549513,12.4592623 26.4800776,12.4592623 26.1871843,12.7521555 L26.1871843,12.7521555 L25.1265242,13.8128157 C24.8336309,14.1057089 24.8336309,14.5805826 25.1265242,14.8734758 C25.4194174,15.1663691 25.8942911,15.1663691 26.1871843,14.8734758 L26.1871843,14.8734758 L27.2478445,13.8128157 C27.5407377,13.5199224 27.5407377,13.0450487 27.2478445,12.7521555 Z M20,9.75 C19.5857864,9.75 19.25,10.0857864 19.25,10.5 L19.25,10.5 L19.25,12 C19.25,12.4142136 19.5857864,12.75 20,12.75 C20.4142136,12.75 20.75,12.4142136 20.75,12 L20.75,12 L20.75,10.5 C20.75,10.0857864 20.4142136,9.75 20,9.75 Z" id="形状结合" fill="#FFFFFF" opacity="0.8"></path>
            <g id="编组-2" transform="translate(9.750000, 13.250100)">
                <g id="Group-3" transform="translate(4.000000, 0.000000)">
                    <mask id="mask-2" fill="white">
                        <use xlink:href="#path-1"></use>
                    </mask>
                    <g id="Clip-2"></g>
                </g>
                <g id="编组" transform="translate(4.062816, 12.937084) rotate(45.000000) translate(-4.062816, -12.937084) translate(3.312816, 11.437084)"></g>
                <g id="编组" transform="translate(16.437184, 12.937084) scale(-1, 1) rotate(45.000000) translate(-16.437184, -12.937084) translate(15.687184, 11.437084)"></g>
                <g id="编组" transform="translate(10.250000, 6.749900) rotate(90.000000) translate(-10.250000, -6.749900) translate(9.500000, -3.500100)"></g>
                <g id="编组" transform="translate(9.500000, 13.999900)"></g>
            </g>
        </g>
    </g>
</svg>